<svg width="16" height="16" viewBox="0 0 16 16" fill="none" xmlns="http://www.w3.org/2000/svg">
<circle cx="8" cy="8" r="8" fill="#6CAB34"/>
<path d="M11.6667 5.44H10.3333V4.64C10.3333 4.287 10.0344 4 9.66667 4H6.33333C5.96563 4 5.66667 4.287 5.66667 4.64V5.44H4.33333C4.14896 5.44 4 5.583 4 5.76V6.08C4 6.124 4.0375 6.16 4.08333 6.16H4.7125L4.96979 11.39C4.98646 11.731 5.28021 12 5.63542 12H10.3646C10.7208 12 11.0135 11.732 11.0302 11.39L11.2875 6.16H11.9167C11.9625 6.16 12 6.124 12 6.08V5.76C12 5.583 11.851 5.44 11.6667 5.44ZM9.58333 5.44H6.41667V4.72H9.58333V5.44Z" fill="white"/>
</svg>
