<svg width="62" height="62" viewBox="0 0 62 62" fill="none" xmlns="http://www.w3.org/2000/svg">
<path d="M31 62C48.1208 62 62 48.1208 62 31C62 13.8792 48.1208 0 31 0C13.8792 0 0 13.8792 0 31C0 48.1208 13.8792 62 31 62Z" fill="#DC3545"/>
<path d="M29.1656 27.0071H32.0822V34.2988H29.1656V27.0071ZM29.1641 35.7571H32.0808V38.6738H29.1641V35.7571Z" fill="white"/>
<path d="M33.2003 18.5488C32.6928 17.5936 31.7041 17 30.622 17C29.5399 17 28.5512 17.5936 28.0437 18.5502L17.3424 38.7671C17.1049 39.2111 16.9873 39.7093 17.0011 40.2126C17.0149 40.7159 17.1597 41.2068 17.4212 41.6371C17.6788 42.0693 18.0448 42.4269 18.4829 42.6744C18.921 42.922 19.4161 43.051 19.9193 43.0488H41.3247C42.3572 43.0488 43.292 42.5209 43.8243 41.6371C44.0853 41.2067 44.2298 40.7157 44.2436 40.2125C44.2575 39.7093 44.1401 39.2112 43.903 38.7671L33.2003 18.5488ZM19.9193 40.1321L30.622 19.9152L41.332 40.1321H19.9193Z" fill="white"/>
</svg>
