<svg width="16" height="16" viewBox="0 0 16 16" fill="none" xmlns="http://www.w3.org/2000/svg">
<path d="M15.7479 7.99789L15.7492 7.99661L13.6217 5.86905L13.4273 5.67608L13.2672 5.51718L9.8599 2.10986L7.37671 4.59308L10.7836 7.99999L7.37671 11.4069L9.8599 13.8901L13.2668 10.4832L13.2681 10.4845L13.2702 10.4824L15.3977 8.35483L15.75 7.99999L15.7479 7.99789ZM9.8599 12.476L8.79093 11.407L12.1978 7.99999L8.79093 4.59308L9.8599 3.52408L12.9132 6.57743L13.2681 6.92971L14.3384 7.99999L13.2681 9.07027L13.2668 9.06899L13.2647 9.07108L9.8599 12.476Z" fill="#71C6FF"/>
<path d="M8.83721 7.99999L8.83512 7.99789L8.8364 7.99661L6.70884 5.86905L6.35621 5.51874L2.94709 2.10986L0.463867 4.59308L3.87077 7.99999L0.463867 11.4069L2.94709 13.8901L6.35621 10.4812L6.35749 10.4825L8.48505 8.35496L8.83721 7.99999ZM6.35309 9.07236L6.3518 9.07108L2.94709 12.4759L1.87809 11.4069L5.28499 7.99999L1.87809 4.59308L2.94709 3.52408L6.00043 6.57743L6.3529 6.92743L7.42555 7.99999L6.35309 9.07236Z" fill="#71C6FF"/>
</svg>
