<svg width="103" height="71" viewBox="0 0 103 71" fill="none" xmlns="http://www.w3.org/2000/svg">
<g clip-path="url(#clip0)">
<path d="M42.8624 7.74702C46.1843 4.33865 50.809 2.2247 55.9237 2.2247C62.723 2.2247 68.6549 5.95816 71.814 11.5006C74.5592 10.2928 77.5979 9.62086 80.7949 9.62086C93.058 9.62086 103 19.4965 103 31.678C103 43.8609 93.058 53.7365 80.7949 53.7365C79.3261 53.7374 77.8608 53.5936 76.4211 53.3074C73.6392 58.1938 68.3381 61.4953 62.2535 61.4953C59.7063 61.4953 57.2971 60.916 55.152 59.8858C52.3319 66.4179 45.7617 70.9981 38.1041 70.9981C30.1297 70.9981 23.3335 66.0293 20.7248 59.0608C19.5847 59.2991 18.4036 59.4234 17.1916 59.4234C7.69716 59.4235 0 51.7658 0 42.3179C0 35.9866 3.45828 30.4585 8.59653 27.5009C7.53869 25.104 6.95028 22.4584 6.95028 19.677C6.95028 8.81177 15.9078 0.00402832 26.9561 0.00402832C33.4427 0.00402832 39.2075 3.0411 42.8624 7.74702Z" fill="#00A1E0"/>
<path d="M14.9187 36.8188C14.8541 36.985 14.9422 37.0197 14.9627 37.0485C15.1563 37.1872 15.353 37.287 15.5511 37.3982C16.6016 37.9472 17.5936 38.1075 18.6309 38.1075C20.7437 38.1075 22.0553 37.0008 22.0553 35.2192V35.1846C22.0553 33.5374 20.575 32.9393 19.1855 32.5073L19.005 32.4495C17.9574 32.1142 17.0536 31.8254 17.0536 31.1463V31.1102C17.0536 30.5294 17.5818 30.1016 18.4005 30.1016C19.3102 30.1016 20.3901 30.3993 21.0856 30.7778C21.0856 30.7778 21.2895 30.9079 21.3643 30.7128C21.4054 30.6088 21.7576 29.6754 21.7943 29.5743C21.8339 29.4644 21.7635 29.3835 21.6916 29.3401C20.8978 28.8648 19.8003 28.5397 18.6647 28.5397L18.4534 28.5411C16.5196 28.5411 15.1698 29.6912 15.1698 31.3398V31.3745C15.1698 33.1126 16.659 33.6761 18.0544 34.0691L18.2789 34.137C19.2957 34.4448 20.1717 34.7092 20.1717 35.4143V35.449C20.1717 36.0934 19.6024 36.573 18.6839 36.573C18.3273 36.573 17.1902 36.5658 15.9622 35.8014C15.8139 35.7161 15.7274 35.6541 15.6129 35.5862C15.5528 35.5486 15.4017 35.4835 15.3357 35.6801L14.9187 36.8188ZM45.8494 36.8188C45.7848 36.985 45.8729 37.0197 45.8934 37.0485C46.087 37.1872 46.2837 37.287 46.4817 37.3982C47.5322 37.9472 48.5243 38.1075 49.5615 38.1075C51.6743 38.1075 52.9861 37.0008 52.9861 35.2192V35.1846C52.9861 33.5374 51.5056 32.9393 50.1161 32.5073L49.9357 32.4495C48.888 32.1142 47.9841 31.8254 47.9841 31.1463V31.1102C47.9841 30.5294 48.5123 30.1016 49.3311 30.1016C50.2407 30.1016 51.3206 30.3993 52.0162 30.7778C52.0162 30.7778 52.2201 30.9079 52.2949 30.7128C52.3359 30.6088 52.6881 29.6754 52.7248 29.5743C52.7645 29.4644 52.694 29.3835 52.6221 29.3401C51.8283 28.8648 50.7308 28.5397 49.5952 28.5397L49.3839 28.5411C47.4501 28.5411 46.1002 29.6912 46.1002 31.3398V31.3745C46.1002 33.1126 47.5894 33.6761 48.9848 34.0691L49.2093 34.137C50.2261 34.4448 51.1036 34.7092 51.1036 35.4143V35.449C51.1036 36.0934 50.5328 36.573 49.6143 36.573C49.2579 36.573 48.1207 36.5658 46.8927 35.8014C46.7444 35.7161 46.6565 35.6569 46.545 35.5862C46.5068 35.5616 46.3278 35.4937 46.2661 35.6801L45.8494 36.8188ZM66.965 33.3292C66.965 34.3362 66.7743 35.1294 66.3987 35.69C66.0274 36.2449 65.4655 36.5151 64.6821 36.5151C63.8972 36.5151 63.3381 36.2463 62.9727 35.69C62.6029 35.1309 62.4153 34.3362 62.4153 33.3292C62.4153 32.3236 62.6029 31.5318 62.9727 30.9769C63.3381 30.4279 63.8972 30.1606 64.6821 30.1606C65.4656 30.1606 66.0275 30.4279 66.4002 30.9769C66.7744 31.5317 66.965 32.3235 66.965 33.3292ZM68.7287 31.4624C68.5555 30.8858 68.2855 30.3773 67.9261 29.954C67.5666 29.5292 67.1118 29.1882 66.5718 28.9397C66.0333 28.6927 65.3966 28.567 64.6821 28.567C63.966 28.567 63.3293 28.6927 62.7908 28.9397C62.2508 29.1882 61.796 29.5293 61.4351 29.954C61.0771 30.3788 60.8071 30.8874 60.6325 31.4624C60.4608 32.036 60.3742 32.663 60.3742 33.3292C60.3742 33.9953 60.4608 34.6238 60.6325 35.1959C60.8071 35.771 61.0756 36.2796 61.4366 36.7043C61.796 37.1291 62.2524 37.4686 62.7909 37.7099C63.3307 37.9512 63.966 38.074 64.6822 38.074C65.3967 38.074 66.032 37.9512 66.5719 37.7099C67.1104 37.4686 67.5666 37.129 67.9262 36.7043C68.2856 36.2809 68.5556 35.7724 68.7288 35.1959C68.902 34.6223 68.9885 33.9938 68.9885 33.3292C68.9885 32.6645 68.9018 32.036 68.7287 31.4624ZM83.2113 36.2461C83.1526 36.0771 82.9868 36.1406 82.9868 36.1406C82.7301 36.2375 82.4571 36.327 82.1666 36.3718C81.8716 36.4165 81.5474 36.4397 81.1996 36.4397C80.3458 36.4397 79.6679 36.1898 79.1823 35.6956C78.6951 35.2015 78.4222 34.4025 78.4251 33.3217C78.4281 32.3378 78.6686 31.598 79.1016 31.0346C79.5315 30.474 80.1859 30.1864 81.0589 30.1864C81.7867 30.1864 82.3413 30.2687 82.9222 30.4494C82.9222 30.4494 83.0616 30.5085 83.1275 30.3294C83.2816 29.9075 83.396 29.6055 83.5604 29.1417C83.6074 29.0103 83.4929 28.9539 83.4518 28.938C83.2229 28.8498 82.683 28.7069 82.2751 28.6462C81.8936 28.5884 81.4476 28.558 80.9517 28.558C80.2105 28.558 79.5504 28.6823 78.9856 28.9309C78.4221 29.1779 77.9438 29.5188 77.5653 29.9437C77.1867 30.3685 76.8992 30.877 76.707 31.4521C76.5163 32.0256 76.4194 32.6556 76.4194 33.3217C76.4194 34.7623 76.8141 35.9267 77.5933 36.7793C78.3738 37.6346 79.5462 38.0695 81.0751 38.0695C81.9789 38.0695 82.9062 37.889 83.5723 37.6303C83.5723 37.6303 83.7 37.5696 83.6442 37.4238L83.2113 36.2461ZM86.297 32.3644C86.3807 31.8053 86.5377 31.34 86.7798 30.9774C87.1452 30.4269 87.7026 30.125 88.4862 30.125C89.2698 30.125 89.7877 30.4283 90.1589 30.9774C90.4054 31.34 90.5125 31.8256 90.5551 32.3644H86.297ZM92.2349 31.1348C92.0853 30.5785 91.7141 30.0164 91.4705 29.7593C91.0861 29.3518 90.7106 29.0672 90.3379 28.9082C89.8507 28.703 89.2667 28.5673 88.6271 28.5673C87.8817 28.5673 87.2053 28.6901 86.6566 28.9444C86.1064 29.1987 85.6443 29.5455 85.2818 29.9775C84.9193 30.408 84.6465 30.921 84.4732 31.5032C84.2987 32.0827 84.2106 32.7141 84.2106 33.38C84.2106 34.0577 84.3017 34.6892 84.4821 35.2569C84.6641 35.8291 84.9545 36.3333 85.3478 36.7508C85.7394 37.1714 86.2442 37.5008 86.8487 37.7304C87.4489 37.9587 88.1781 38.0772 89.0159 38.0757C90.74 38.0699 91.6481 37.6914 92.0222 37.4876C92.0883 37.4516 92.1514 37.388 92.072 37.206L91.6818 36.1295C91.6232 35.9691 91.4573 36.0283 91.4573 36.0283C91.0303 36.1844 90.423 36.4647 89.007 36.4619C88.0812 36.4605 87.3945 36.1917 86.9645 35.7712C86.5229 35.3407 86.3072 34.7077 86.2691 33.8149L92.2393 33.8207C92.2393 33.8207 92.3962 33.8178 92.4125 33.6675C92.4184 33.6041 92.618 32.4598 92.2349 31.1348ZM38.4845 32.3644C38.5696 31.8053 38.7252 31.34 38.9672 30.9774C39.3325 30.4269 39.8901 30.125 40.6736 30.125C41.4571 30.125 41.9751 30.4283 42.3477 30.9774C42.5927 31.34 42.6998 31.8256 42.7424 32.3644H38.4845ZM44.4209 31.1348C44.2713 30.5785 43.9016 30.0164 43.658 29.7593C43.2736 29.3518 42.8979 29.0672 42.5253 28.9082C42.0382 28.703 41.4543 28.5673 40.8145 28.5673C40.0707 28.5673 39.3927 28.6901 38.844 28.9444C38.2939 29.1987 37.8317 29.5455 37.4693 29.9775C37.1069 30.408 36.8339 30.921 36.6608 31.5032C36.4877 32.0827 36.3982 32.7141 36.3982 33.38C36.3982 34.0577 36.4892 34.6892 36.6697 35.2569C36.8517 35.8291 37.1422 36.3333 37.5353 36.7508C37.9271 37.1714 38.4318 37.5008 39.0363 37.7304C39.6365 37.9587 40.3656 38.0772 41.2034 38.0757C42.9274 38.0699 43.8357 37.6914 44.2098 37.4876C44.2759 37.4516 44.3389 37.388 44.2597 37.206L43.8709 36.1295C43.8107 35.9691 43.645 36.0283 43.645 36.0283C43.2181 36.1844 42.612 36.4647 41.1932 36.4619C40.2689 36.4605 39.5823 36.1917 39.1523 35.7712C38.7106 35.3407 38.495 34.7077 38.4568 33.8149L44.427 33.8207C44.427 33.8207 44.5839 33.8178 44.6001 33.6675C44.6057 33.6041 44.8053 32.4598 44.4209 31.1348ZM25.58 36.2139C25.3467 36.0304 25.3144 35.9842 25.2353 35.8657C25.1178 35.6851 25.0577 35.4279 25.0577 35.1014C25.0577 34.5841 25.2308 34.2128 25.5903 33.9628C25.586 33.9643 26.1039 33.5222 27.3216 33.538C28.177 33.5496 28.9414 33.6739 28.9414 33.6739V36.3468H28.9428C28.9428 36.3468 28.1843 36.5072 27.3304 36.5577C26.1155 36.63 25.5756 36.2125 25.58 36.2139ZM27.9554 32.0831C27.7133 32.0657 27.3993 32.0556 27.0237 32.0556C26.5117 32.0556 26.0172 32.1191 25.5535 32.242C25.087 32.3647 24.6674 32.557 24.3064 32.8112C23.946 33.0645 23.6498 33.3962 23.4407 33.7807C23.2295 34.1679 23.1224 34.6245 23.1224 35.136C23.1224 35.6561 23.2133 36.1083 23.3953 36.4783C23.5773 36.8496 23.8399 37.1588 24.1743 37.3973C24.5059 37.6357 24.9153 37.8104 25.3906 37.9159C25.8587 38.0214 26.3898 38.0748 26.9709 38.0748C27.5827 38.0748 28.1931 38.0257 28.7844 37.9259C29.3698 37.8277 30.0887 37.6846 30.2882 37.6399C30.4281 37.6067 30.5675 37.5716 30.7064 37.5344C30.8547 37.4984 30.8429 37.3422 30.8429 37.3422L30.8399 31.966C30.8399 30.7869 30.5201 29.9128 29.8907 29.371C29.2641 28.8307 28.3412 28.5574 27.1484 28.5574C26.7009 28.5574 25.9805 28.6183 25.5491 28.7034C25.5491 28.7034 24.2447 28.952 23.7077 29.3652C23.7077 29.3652 23.5903 29.4375 23.6549 29.5993L24.0775 30.7177C24.1303 30.8622 24.2727 30.813 24.2727 30.813C24.2727 30.813 24.3181 30.7957 24.371 30.7653C25.5199 30.1498 26.9724 30.1686 26.9724 30.1686C27.6181 30.1686 28.114 30.2957 28.4485 30.5486C28.7742 30.7942 28.94 31.1654 28.94 31.9486V32.1971C28.4264 32.1249 27.9554 32.0831 27.9554 32.0831ZM76.1076 29.0538C76.1529 28.9208 76.0577 28.8573 76.018 28.8428C75.9168 28.8039 75.4091 28.6984 75.0173 28.6738C74.2677 28.629 73.851 28.7533 73.4782 28.918C73.1085 29.0827 72.6977 29.3485 72.4687 29.6505V28.9353C72.4687 28.8356 72.3969 28.7561 72.2971 28.7561H70.7667C70.667 28.7561 70.5951 28.8355 70.5951 28.9353V37.7041C70.5951 37.8024 70.6773 37.8833 70.777 37.8833H72.3455C72.3936 37.883 72.4395 37.864 72.4734 37.8304C72.5072 37.7968 72.5261 37.7514 72.526 37.7041V33.3234C72.526 32.7353 72.5921 32.1488 72.7241 31.7803C72.8532 31.4161 73.0293 31.1243 73.2464 30.9148C73.465 30.7067 73.713 30.5608 73.9845 30.4785C74.2617 30.3946 74.5683 30.3672 74.7856 30.3672C75.0981 30.3672 75.4414 30.4466 75.4414 30.4466C75.5558 30.4596 75.6204 30.3903 75.6584 30.2877C75.7612 30.019 76.0518 29.2141 76.1076 29.0538Z" fill="white"/>
<path d="M61.3849 24.9898C61.1942 24.932 61.0211 24.8929 60.7951 24.8511C60.5661 24.8107 60.2933 24.7904 59.9838 24.7904C58.9038 24.7904 58.0527 25.0909 57.4557 25.6833C56.8614 26.2728 56.4578 27.1701 56.2553 28.3506L56.1819 28.7478H54.8263C54.8263 28.7478 54.662 28.7421 54.6267 28.9184L54.4053 30.1422C54.3891 30.2578 54.4405 30.3314 54.5989 30.3314H55.918L54.5798 37.6886C54.4756 38.281 54.3553 38.768 54.2217 39.1377C54.0911 39.5019 53.9636 39.7749 53.8051 39.9743C53.6525 40.1651 53.5087 40.3066 53.2592 40.389C53.0538 40.4569 52.8161 40.4887 52.5564 40.4887C52.4126 40.4887 52.2205 40.4654 52.0781 40.4366C51.9373 40.4091 51.8624 40.3788 51.7553 40.334C51.7553 40.334 51.6013 40.2763 51.5396 40.428C51.4912 40.5537 51.1391 41.5057 51.0965 41.6229C51.0554 41.7398 51.1141 41.8309 51.1889 41.8583C51.365 41.919 51.4955 41.9595 51.7347 42.0158C52.0664 42.0925 52.3465 42.0967 52.6091 42.0967C53.1578 42.0967 53.6596 42.0202 54.0749 41.8728C54.4917 41.724 54.8554 41.4653 55.1782 41.1157C55.526 40.7371 55.7446 40.3413 55.9531 39.7995C56.1599 39.2648 56.3375 38.6002 56.4783 37.8259L57.8238 30.3314H59.7898C59.7898 30.3314 59.9555 30.3372 59.9894 30.1595L60.2123 28.9372C60.2271 28.8202 60.1772 28.7479 60.0172 28.7479H58.1083C58.1186 28.7061 58.2051 28.0442 58.4238 27.4217C58.5177 27.1573 58.6937 26.9419 58.842 26.7945C58.9888 26.65 59.1575 26.5475 59.3425 26.4882C59.5317 26.4275 59.7475 26.3986 59.9837 26.3986C60.1626 26.3986 60.3401 26.4188 60.4736 26.4463C60.6585 26.4853 60.7303 26.5056 60.7789 26.5201C60.9741 26.5778 61.0004 26.5215 61.0386 26.4291L61.4949 25.1952C61.5419 25.062 61.426 25.0056 61.3849 24.9898ZM34.7142 37.7045C34.7142 37.8028 34.6424 37.8823 34.5426 37.8823H32.9594C32.8596 37.8823 32.7892 37.8028 32.7892 37.7045V25.1574C32.7892 25.0593 32.8596 24.9798 32.9594 24.9798H34.5426C34.6424 24.9798 34.7142 25.0593 34.7142 25.1574V37.7045Z" fill="white"/>
</g>
<defs>
<clipPath id="clip0">
<rect width="103" height="71" fill="white"/>
</clipPath>
</defs>
</svg>
