<svg width="62" height="62" viewBox="0 0 62 62" fill="none" xmlns="http://www.w3.org/2000/svg">
<circle cx="31" cy="31" r="31" fill="#A1D9FF"/>
<path d="M21.9333 26.4667L20.9768 25.8592L20.8 26.1357V26.4667H21.9333ZM28.0488 16.856L29.0031 17.468L28.0488 16.856ZM34.094 20.2787L33.0785 19.7732L34.094 20.2809V20.2787ZM31 26.4667L29.9868 25.9589C29.9002 26.1317 29.8593 26.3238 29.8678 26.5168C29.8764 26.7099 29.9342 26.8976 30.0357 27.062C30.1372 27.2265 30.2791 27.3622 30.4479 27.4564C30.6167 27.5505 30.8067 27.6 31 27.6V26.4667ZM46.8667 37.8L47.7733 38.48L48 38.1785V37.8H46.8667ZM41.4267 45.0533L42.3333 45.7333L41.4267 45.0533ZM32.7725 15.7431L33.3551 14.7707L32.7725 15.7453V15.7431ZM14 25.3333V48H16.2667V25.3333H14ZM22.8899 27.0741L29.0031 17.468L27.0923 16.2485L20.9768 25.8592L22.8899 27.0741ZM33.0785 19.7755L29.9868 25.9567L32.0132 26.9721L35.1072 20.7841L33.0785 19.7709V19.7755ZM31 27.6H42.3333V25.3333H31V27.6ZM45.7333 31V37.8H48V31H45.7333ZM45.96 37.12L40.52 44.3733L42.3333 45.7333L47.7733 38.48L45.96 37.12ZM37.8 45.7333H26.4667V48H37.8V45.7333ZM23.0667 42.3333V26.4667H20.8V42.3333H23.0667ZM42.3333 27.6C43.2351 27.6 44.0999 27.9582 44.7375 28.5958C45.3751 29.2334 45.7333 30.0982 45.7333 31H48C48 29.4971 47.403 28.0558 46.3403 26.993C45.2776 25.9303 43.8362 25.3333 42.3333 25.3333V27.6ZM26.4667 45.7333C25.5649 45.7333 24.7001 45.3751 24.0625 44.7375C23.4249 44.0999 23.0667 43.2351 23.0667 42.3333H20.8C20.8 43.8362 21.397 45.2775 22.4597 46.3403C23.5224 47.403 24.9638 48 26.4667 48V45.7333ZM32.1877 16.7155C33.2395 17.3456 33.6271 18.6784 33.0785 19.7755L35.1072 20.7864C35.6268 19.7474 35.7349 18.5505 35.4101 17.4351C35.0852 16.3198 34.3513 15.3682 33.3551 14.7707L32.1877 16.7155ZM40.52 44.3733C40.2033 44.7956 39.7926 45.1383 39.3205 45.3744C38.8484 45.6104 38.3278 45.7333 37.8 45.7333V48C38.6797 48 39.5474 47.7952 40.3342 47.4017C41.1211 47.0083 41.8055 46.4371 42.3333 45.7333L40.52 44.3733ZM29.0053 17.468C29.6853 16.3936 31.0997 16.0627 32.1877 16.7155L33.3573 14.7707C32.3268 14.152 31.0953 13.9602 29.9255 14.2363C28.7556 14.5124 27.7398 15.2344 27.0945 16.2485L29.0053 17.4657V17.468Z" fill="white"/>
</svg>
